<?xml version="1.0" standalone="no"?>
<!DOCTYPE svg PUBLIC "-//W3C//DTD SVG 20010904//EN"
 "http://www.w3.org/TR/2001/REC-SVG-20010904/DTD/svg10.dtd">
<svg version="1.0" xmlns="http://www.w3.org/2000/svg"
 width="512.000000pt" height="512.000000pt" viewBox="0 0 512.000000 512.000000"
 preserveAspectRatio="xMidYMid meet">

<g transform="translate(0.000000,512.000000) scale(0.100000,-0.100000)"
fill="#000000" stroke="none">
<path d="M415 4786 c-94 -42 -124 -169 -58 -247 46 -54 71 -59 295 -59 175 0
209 -3 243 -19 43 -19 91 -68 106 -109 5 -13 32 -162 59 -331 28 -168 125
-758 217 -1310 178 -1070 170 -1036 236 -1085 l28 -21 1326 -3 c1314 -2 1327
-2 1367 18 23 11 50 32 60 46 24 33 505 1950 506 2012 0 59 -24 107 -69 134
l-36 23 -1640 5 -1640 5 -46 273 c-50 297 -59 332 -96 406 -31 60 -119 155
-183 196 -103 66 -141 73 -405 77 -188 2 -247 0 -270 -11z m4015 -1273 c0 -5
-88 -365 -197 -801 l-198 -792 -1150 2 -1149 3 -133 785 c-72 432 -132 791
-133 798 0 9 302 12 1480 12 814 0 1480 -3 1480 -7z"/>
<path d="M1801 1264 c-253 -68 -410 -331 -346 -579 67 -256 329 -415 580 -350
256 67 415 329 350 578 -67 259 -333 419 -584 351z m182 -318 c103 -43 128
-177 48 -257 -65 -65 -157 -65 -222 0 -124 123 13 325 174 257z"/>
<path d="M3721 1264 c-253 -68 -410 -331 -346 -579 67 -256 329 -415 580 -350
256 67 415 329 350 578 -67 259 -333 419 -584 351z m182 -318 c103 -43 128
-177 48 -257 -65 -65 -157 -65 -222 0 -124 123 13 325 174 257z"/>
</g>
</svg>
