<?xml version="1.0" standalone="no"?>
<!DOCTYPE svg PUBLIC "-//W3C//DTD SVG 20010904//EN"
 "http://www.w3.org/TR/2001/REC-SVG-20010904/DTD/svg10.dtd">
<svg version="1.0" xmlns="http://www.w3.org/2000/svg"
 width="512.000000pt" height="512.000000pt" viewBox="0 0 512.000000 512.000000"
 preserveAspectRatio="xMidYMid meet">

<g transform="translate(0.000000,512.000000) scale(0.100000,-0.100000)"
fill="#000000" stroke="none">
<path d="M2221 4618 c-40 -21 -62 -50 -223 -298 -98 -151 -188 -292 -198 -312
-28 -52 -26 -126 3 -168 14 -21 125 -99 327 -229 305 -196 305 -196 362 -196
63 0 97 19 136 75 36 53 27 137 -20 187 -11 12 -72 55 -135 95 -90 57 -110 74
-96 79 33 13 316 9 413 -6 199 -30 397 -100 557 -195 694 -416 953 -1269 603
-1985 -217 -444 -625 -750 -1125 -843 -125 -23 -407 -22 -532 1 -659 124
-1150 617 -1260 1267 -22 129 -21 366 1 495 32 186 125 424 224 573 32 48 37
63 37 113 0 65 -18 98 -76 137 -28 20 -43 23 -87 20 -64 -6 -95 -26 -144 -99
-207 -305 -321 -752 -288 -1134 37 -436 204 -815 493 -1121 581 -614 1476
-768 2227 -383 357 183 634 465 815 827 202 404 245 890 116 1332 -181 623
-695 1116 -1328 1274 -183 46 -308 59 -530 54 -112 -3 -203 -3 -203 -1 0 2 29
49 65 104 87 134 95 151 95 202 0 116 -125 190 -229 135z"/>
</g>
</svg>
