<?xml version="1.0" standalone="no"?>
<!DOCTYPE svg PUBLIC "-//W3C//DTD SVG 20010904//EN"
 "http://www.w3.org/TR/2001/REC-SVG-20010904/DTD/svg10.dtd">
<svg version="1.0" xmlns="http://www.w3.org/2000/svg"
 width="512.000000pt" height="512.000000pt" viewBox="0 0 512.000000 512.000000"
 preserveAspectRatio="xMidYMid meet">

<g transform="translate(0.000000,512.000000) scale(0.100000,-0.100000)"
fill="#000000" stroke="none">
<path d="M870 5111 c-73 -23 -147 -89 -178 -160 -24 -55 -20 -156 8 -214 29
-62 100 -123 163 -142 76 -23 3318 -23 3394 0 64 19 134 80 163 142 28 59 31
160 7 215 -26 61 -92 125 -153 148 -54 20 -68 20 -1717 19 -914 0 -1673 -4
-1687 -8z"/>
<path d="M2464 4294 c-34 -12 -120 -94 -440 -417 -220 -221 -575 -580 -790
-797 -216 -217 -400 -410 -409 -428 -25 -50 -22 -146 5 -210 57 -133 227 -199
352 -137 18 10 275 258 571 553 l537 537 0 -1580 c0 -1045 4 -1592 10 -1617
18 -63 70 -129 130 -162 48 -27 65 -31 130 -31 65 0 82 4 130 31 59 34 112
100 130 162 6 25 10 571 10 1617 l0 1580 553 -552 c421 -422 563 -557 597
-572 95 -43 234 -18 302 55 67 72 88 194 47 284 -15 34 -126 152 -442 470
-232 234 -595 599 -805 812 -332 335 -389 389 -429 402 -57 20 -134 19 -189 0z"/>
</g>
</svg>
